# xmcd
#
# Track frame offsets:
#	150
#	11253
#	22809
#	34727
#	46504
#	57317
#	69637
#	83914
#	97462
#	111140
#	122621
#	133078
#	141248
#	160076
#	173011
#	187147
#	201256
#	211178
#	225169
#	238359
#
# Disc length: 3322 seconds
#
# Revision: 1
# Processed by: cddbd v1.5.2PL0 Copyright (c) Steve Scherf et al.
# Submitted via: audiograbber 1.83.01
#
DISCID=100cf814
DTITLE=Wanda Jackson - The Famous Wanda Jackson CD12
DYEAR=2012
DGENRE=Country
TTITLE0=Please Help Me I'm Falling
TTITLE1=Please Love Me Forever
TTITLE2=Pledging My Love
TTITLE3=Poor Ole Me
TTITLE4=Reaching
TTITLE5=Reckless Love Affair
TTITLE6=Release Me
TTITLE7=Ruben James
TTITLE8=Right Or Wrong
TTITLE9=Riot In Cell # 9
TTITLE10=Rip It Up
TTITLE11=Rock Your Baby
TTITLE12=Rockabilly Fever
TTITLE13=Roll With The Tide
TTITLE14=Santa Domingo (German)
TTITLE15=Santa Domingo (japanese)
TTITLE16=Savin´ My Love
TTITLE17=18 - Schick`ISchick`Ihn Nicht Fort Daddyhn N
TTITLE18=Searchin'
TTITLE19=Send Me No Roses
EXTD=
EXTT0=
EXTT1=
EXTT2=
EXTT3=
EXTT4=
EXTT5=
EXTT6=
EXTT7=
EXTT8=
EXTT9=
EXTT10=
EXTT11=
EXTT12=
EXTT13=
EXTT14=
EXTT15=
EXTT16=
EXTT17=
EXTT18=
EXTT19=
PLAYORDER=
